<svg width="161" height="64" viewBox="0 0 161 64" fill="none" xmlns="http://www.w3.org/2000/svg">
<path d="M28 52C39.0457 52 48 43.0457 48 32C48 20.9543 39.0457 12 28 12C16.9543 12 8 20.9543 8 32C8 43.0457 16.9543 52 28 52Z" stroke="#E2E2DE" stroke-width="3.6"/>
<path d="M47.6961 28.527C45.7781 17.6491 35.4049 10.3858 24.527 12.3038C13.6491 14.2219 6.38577 24.5951 8.30383 35.473C10.2219 46.3508 20.5951 53.6142 31.4729 51.6962C42.3508 49.7781 49.6142 39.4049 47.6961 28.527Z" stroke="#3B5BDB" stroke-width="3.6" stroke-linecap="round" stroke-dasharray="104 22"/>
<path d="M28 16C30.2091 16 32 14.2091 32 12C32 9.79086 30.2091 8 28 8C25.7909 8 24 9.79086 24 12C24 14.2091 25.7909 16 28 16Z" fill="#3B5BDB"/>
<path opacity="0.12" d="M28 38C31.3137 38 34 35.3137 34 32C34 28.6863 31.3137 26 28 26C24.6863 26 22 28.6863 22 32C22 35.3137 24.6863 38 28 38Z" fill="#3B5BDB"/>
<path opacity="0.75" d="M28 36C30.2091 36 32 34.2091 32 32C32 29.7909 30.2091 28 28 28C25.7909 28 24 29.7909 24 32C24 34.2091 25.7909 36 28 36Z" fill="#3B5BDB"/>
<path d="M76.46 15.04C77.5933 15.04 78.62 15.14 79.54 15.34C80.46 15.54 81.3333 15.82 82.16 16.18L81.08 18.68C80.4 18.3867 79.68 18.1667 78.92 18.02C78.16 17.8733 77.3733 17.8 76.56 17.8C75.0933 17.8 73.9867 18.0867 73.24 18.66C72.5067 19.2333 72.14 20.1133 72.14 21.3V25.58H79.28L78.92 28.22H72.14V45H68.78V28.22H63.76V25.58H68.78V21.38C68.78 20.0733 69.1133 18.9467 69.78 18C70.46 17.0533 71.38 16.3267 72.54 15.82C73.7 15.3 75.0067 15.04 76.46 15.04ZM96.2044 15.46V39.8C96.2044 40.84 96.5244 41.58 97.1644 42.02C97.8177 42.4467 98.6577 42.66 99.6844 42.66C100.324 42.66 100.931 42.5933 101.504 42.46C102.078 42.3267 102.651 42.1467 103.224 41.92L104.124 44.38C103.551 44.66 102.838 44.9067 101.984 45.12C101.144 45.3467 100.191 45.46 99.1244 45.46C97.2577 45.46 95.7444 44.9467 94.5844 43.92C93.4244 42.88 92.8444 41.4467 92.8444 39.62V18.12H86.3844V15.46H96.2044ZM151.573 45H146.813L144.093 29.54L141.133 45H136.493L132.653 23.94H136.093L138.773 42.92L142.133 26.62H146.113L149.293 42.92L151.973 23.94H155.253L151.573 45Z" fill="#1A1A2E"/>
<path d="M119.969 16.58C123.275 16.58 125.769 17.86 127.449 20.42C129.142 22.9667 129.989 26.52 129.989 31.08C129.989 35.6533 129.142 39.2333 127.449 41.82C125.769 44.3933 123.275 45.68 119.969 45.68C116.635 45.68 114.129 44.3933 112.449 41.82C110.782 39.2333 109.949 35.6533 109.949 31.08C109.949 26.52 110.782 22.9667 112.449 20.42C114.129 17.86 116.635 16.58 119.969 16.58ZM119.969 21.16C118.555 21.16 117.522 21.92 116.869 23.44C116.215 24.9467 115.889 27.4933 115.889 31.08C115.889 33.16 115.949 34.86 116.069 36.18C116.202 37.4867 116.422 38.5 116.729 39.22C117.035 39.94 117.449 40.44 117.969 40.72C118.502 40.9867 119.169 41.12 119.969 41.12C120.915 41.12 121.682 40.8 122.269 40.16C122.869 39.52 123.309 38.4667 123.589 37C123.869 35.52 124.009 33.5467 124.009 31.08C124.009 28.36 123.889 26.2867 123.649 24.86C123.409 23.4333 122.995 22.46 122.409 21.94C121.835 21.42 121.022 21.16 119.969 21.16ZM123.109 22.04L124.729 25.5L117.329 40.78L115.509 37.94L123.109 22.04Z" fill="#3B5BDB"/>
</svg>
